<svg xmlns="http://www.w3.org/2000/svg" xmlns:xlink="http://www.w3.org/1999/xlink" id="processonSvg1000" viewBox="75.0 70.5 1568.0 489.5" width="1568.0" height="489.5"><defs id="ProcessOnDefs1001"/><g id="ProcessOnG1002"><path id="ProcessOnPath1003" d="M75.0 70.5H1643.0V560.0H75.0V70.5Z" fill="none"/><g id="ProcessOnG1004"><g id="ProcessOnG1005" transform="matrix(1.0,0.0,0.0,1.0,305.5,186.0)" opacity="1.0"><path id="ProcessOnPath1006" d="M0.0 0.0L88.0 0.0L88.0 88.0L0.0 88.0Z" stroke="#323232" stroke-width="2.0" stroke-dasharray="none" opacity="1.0" fill="#ffffff"/></g><g id="ProcessOnG1007" transform="matrix(1.0,0.0,0.0,1.0,484.0,230.0)" opacity="1.0"><path id="ProcessOnPath1008" d="M0.0 0.0L60.0 0.0L60.0 60.0L0.0 60.0Z" stroke="#323232" stroke-width="2.0" stroke-dasharray="none" opacity="1.0" fill="#ffffff"/></g><g id="ProcessOnG1009" transform="matrix(1.0,0.0,0.0,1.0,794.5,280.0)" opacity="1.0"><path id="ProcessOnPath1010" d="M0.0 0.0L20.0 0.0L20.0 20.0L0.0 20.0Z" stroke="#323232" stroke-width="2.0" stroke-dasharray="none" opacity="1.0" fill="#ffffff"/></g><g id="ProcessOnG1011" transform="matrix(1.0,0.0,0.0,1.0,644.5,270.0)" opacity="1.0"><path id="ProcessOnPath1012" d="M0.0 0.0L40.0 0.0L40.0 40.0L0.0 40.0Z" stroke="#323232" stroke-width="2.0" stroke-dasharray="none" opacity="1.0" fill="#ffffff"/></g><g id="ProcessOnG1013" transform="matrix(1.0,0.0,0.0,1.0,106.0,96.0)" opacity="1.0"><path id="ProcessOnPath1014" d="M0.0 0.0L118.0 0.0L118.0 29.0L0.0 29.0Z" stroke="none" stroke-width="0.0" stroke-dasharray="none" opacity="1.0" fill="none"/><g id="ProcessOnG1015" transform="matrix(1.0,0.0,0.0,1.0,0.0,-5.5)"><text id="ProcessOnText1016" fill="#000000" font-size="16" x="58.0" y="16.4" font-family="微软雅黑" font-weight="bold" font-style="normal" text-decoration="none" family="微软雅黑" text-anchor="middle" size="16">Inputs：3@54x</text><text id="ProcessOnText1017" fill="#000000" font-size="16" x="58.0" y="36.4" font-family="微软雅黑" font-weight="bold" font-style="normal" text-decoration="none" family="微软雅黑" text-anchor="middle" size="16">54</text></g></g><g id="ProcessOnG1018" transform="matrix(1.0,0.0,0.0,1.0,300.5,96.0)" opacity="1.0"><path id="ProcessOnPath1019" d="M0.0 0.0L118.0 0.0L118.0 29.0L0.0 29.0Z" stroke="none" stroke-width="0.0" stroke-dasharray="none" opacity="1.0" fill="none"/><g id="ProcessOnG1020" transform="matrix(1.0,0.0,0.0,1.0,0.0,-5.5)"><text id="ProcessOnText1021" fill="#000000" font-size="16" x="58.0" y="16.4" font-family="微软雅黑" font-weight="bold" font-style="normal" text-decoration="none" family="微软雅黑" text-anchor="middle" size="16">Feature:</text><text id="ProcessOnText1022" fill="#000000" font-size="16" x="58.0" y="36.4" font-family="微软雅黑" font-weight="bold" font-style="normal" text-decoration="none" family="微软雅黑" text-anchor="middle" size="16">16@27x27</text></g></g><g id="ProcessOnG1023" transform="matrix(1.0,0.0,0.0,1.0,496.0,96.0)" opacity="1.0"><path id="ProcessOnPath1024" d="M0.0 0.0L118.0 0.0L118.0 29.0L0.0 29.0Z" stroke="none" stroke-width="0.0" stroke-dasharray="none" opacity="1.0" fill="none"/><g id="ProcessOnG1025" transform="matrix(1.0,0.0,0.0,1.0,0.0,-5.5)"><text id="ProcessOnText1026" fill="#000000" font-size="16" x="58.0" y="16.4" font-family="微软雅黑" font-weight="bold" font-style="normal" text-decoration="none" family="微软雅黑" text-anchor="middle" size="16">Feature:</text><text id="ProcessOnText1027" fill="#000000" font-size="16" x="58.0" y="36.4" font-family="微软雅黑" font-weight="bold" font-style="normal" text-decoration="none" family="微软雅黑" text-anchor="middle" size="16">64@13x13</text></g></g><g id="ProcessOnG1028" transform="matrix(1.0,0.0,0.0,1.0,655.0,96.0)" opacity="1.0"><path id="ProcessOnPath1029" d="M0.0 0.0L118.0 0.0L118.0 29.0L0.0 29.0Z" stroke="none" stroke-width="0.0" stroke-dasharray="none" opacity="1.0" fill="none"/><g id="ProcessOnG1030" transform="matrix(1.0,0.0,0.0,1.0,0.0,-5.5)"><text id="ProcessOnText1031" fill="#000000" font-size="16" x="58.0" y="16.4" font-family="微软雅黑" font-weight="bold" font-style="normal" text-decoration="none" family="微软雅黑" text-anchor="middle" size="16">Feature:</text><text id="ProcessOnText1032" fill="#000000" font-size="16" x="58.0" y="36.4" font-family="微软雅黑" font-weight="bold" font-style="normal" text-decoration="none" family="微软雅黑" text-anchor="middle" size="16">128@6x6</text></g></g><g id="ProcessOnG1033" transform="matrix(1.0,0.0,0.0,1.0,95.0,140.0)" opacity="1.0"><path id="ProcessOnPath1034" d="M0.0 0.0L120.0 0.0L120.0 120.0L0.0 120.0Z" stroke="#323232" stroke-width="2.0" stroke-dasharray="none" opacity="1.0" fill="#ffffff"/></g><g id="ProcessOnG1035" transform="matrix(1.0,0.0,0.0,1.0,784.5,96.0)" opacity="1.0"><path id="ProcessOnPath1036" d="M0.0 0.0L118.0 0.0L118.0 29.0L0.0 29.0Z" stroke="none" stroke-width="0.0" stroke-dasharray="none" opacity="1.0" fill="none"/><g id="ProcessOnG1037" transform="matrix(1.0,0.0,0.0,1.0,0.0,-5.5)"><text id="ProcessOnText1038" fill="#000000" font-size="16" x="58.0" y="16.4" font-family="微软雅黑" font-weight="bold" font-style="normal" text-decoration="none" family="微软雅黑" text-anchor="middle" size="16">Feature:</text><text id="ProcessOnText1039" fill="#000000" font-size="16" x="58.0" y="36.4" font-family="微软雅黑" font-weight="bold" font-style="normal" text-decoration="none" family="微软雅黑" text-anchor="middle" size="16">128@3x3</text></g></g><g id="ProcessOnG1040" transform="matrix(1.0,0.0,0.0,1.0,115.0,160.0)" opacity="1.0"><path id="ProcessOnPath1041" d="M0.0 0.0L120.0 0.0L120.0 120.0L0.0 120.0Z" stroke="#323232" stroke-width="2.0" stroke-dasharray="none" opacity="1.0" fill="#ffffff"/></g><g id="ProcessOnG1042" transform="matrix(1.0,0.0,0.0,1.0,135.0,180.0)" opacity="1.0"><path id="ProcessOnPath1043" d="M0.0 0.0L120.0 0.0L120.0 120.0L0.0 120.0Z" stroke="#323232" stroke-width="2.0" stroke-dasharray="none" opacity="1.0" fill="#ffffff"/></g><g id="ProcessOnG1044" transform="matrix(1.0,0.0,0.0,1.0,315.5,196.0)" opacity="1.0"><path id="ProcessOnPath1045" d="M0.0 0.0L88.0 0.0L88.0 88.0L0.0 88.0Z" stroke="#323232" stroke-width="2.0" stroke-dasharray="none" opacity="1.0" fill="#ffffff"/></g><g id="ProcessOnG1046" transform="matrix(1.0,0.0,0.0,1.0,325.5,206.0)" opacity="1.0"><path id="ProcessOnPath1047" d="M0.0 0.0L88.0 0.0L88.0 88.0L0.0 88.0Z" stroke="#323232" stroke-width="2.0" stroke-dasharray="none" opacity="1.0" fill="#ffffff"/></g><g id="ProcessOnG1048" transform="matrix(1.0,0.0,0.0,1.0,335.5,216.0)" opacity="1.0"><path id="ProcessOnPath1049" d="M0.0 0.0L88.0 0.0L88.0 88.0L0.0 88.0Z" stroke="#323232" stroke-width="2.0" stroke-dasharray="none" opacity="1.0" fill="#ffffff"/></g><g id="ProcessOnG1050" transform="matrix(1.0,0.0,0.0,1.0,345.5,226.0)" opacity="1.0"><path id="ProcessOnPath1051" d="M0.0 0.0L88.0 0.0L88.0 88.0L0.0 88.0Z" stroke="#323232" stroke-width="2.0" stroke-dasharray="none" opacity="1.0" fill="#ffffff"/></g><g id="ProcessOnG1052" transform="matrix(1.0,0.0,0.0,1.0,355.5,236.0)" opacity="1.0"><path id="ProcessOnPath1053" d="M0.0 0.0L88.0 0.0L88.0 88.0L0.0 88.0Z" stroke="#323232" stroke-width="2.0" stroke-dasharray="none" opacity="1.0" fill="#ffffff"/></g><g id="ProcessOnG1054" transform="matrix(1.0,0.0,0.0,1.0,365.5,246.0)" opacity="1.0"><path id="ProcessOnPath1055" d="M0.0 0.0L88.0 0.0L88.0 88.0L0.0 88.0Z" stroke="#323232" stroke-width="2.0" stroke-dasharray="none" opacity="1.0" fill="#ffffff"/></g><g id="ProcessOnG1056" transform="matrix(1.0,0.0,0.0,1.0,494.0,240.0)" opacity="1.0"><path id="ProcessOnPath1057" d="M0.0 0.0L60.0 0.0L60.0 60.0L0.0 60.0Z" stroke="#323232" stroke-width="2.0" stroke-dasharray="none" opacity="1.0" fill="#ffffff"/></g><g id="ProcessOnG1058" transform="matrix(1.0,0.0,0.0,1.0,504.0,250.0)" opacity="1.0"><path id="ProcessOnPath1059" d="M0.0 0.0L60.0 0.0L60.0 60.0L0.0 60.0Z" stroke="#323232" stroke-width="2.0" stroke-dasharray="none" opacity="1.0" fill="#ffffff"/></g><g id="ProcessOnG1060" transform="matrix(1.0,0.0,0.0,1.0,514.0,260.0)" opacity="1.0"><path id="ProcessOnPath1061" d="M0.0 0.0L60.0 0.0L60.0 60.0L0.0 60.0Z" stroke="#323232" stroke-width="2.0" stroke-dasharray="none" opacity="1.0" fill="#ffffff"/></g><g id="ProcessOnG1062" transform="matrix(1.0,0.0,0.0,1.0,524.0,270.0)" opacity="1.0"><path id="ProcessOnPath1063" d="M0.0 0.0L60.0 0.0L60.0 60.0L0.0 60.0Z" stroke="#323232" stroke-width="2.0" stroke-dasharray="none" opacity="1.0" fill="#ffffff"/></g><g id="ProcessOnG1064" transform="matrix(1.0,0.0,0.0,1.0,534.0,280.0)" opacity="1.0"><path id="ProcessOnPath1065" d="M0.0 0.0L60.0 0.0L60.0 60.0L0.0 60.0Z" stroke="#323232" stroke-width="2.0" stroke-dasharray="none" opacity="1.0" fill="#ffffff"/></g><g id="ProcessOnG1066" transform="matrix(1.0,0.0,0.0,1.0,544.0,290.0)" opacity="1.0"><path id="ProcessOnPath1067" d="M0.0 0.0L60.0 0.0L60.0 60.0L0.0 60.0Z" stroke="#323232" stroke-width="2.0" stroke-dasharray="none" opacity="1.0" fill="#ffffff"/></g><g id="ProcessOnG1068" transform="matrix(1.0,0.0,0.0,1.0,554.0,300.0)" opacity="1.0"><path id="ProcessOnPath1069" d="M0.0 0.0L60.0 0.0L60.0 60.0L0.0 60.0Z" stroke="#323232" stroke-width="2.0" stroke-dasharray="none" opacity="1.0" fill="#ffffff"/></g><g id="ProcessOnG1070" transform="matrix(1.0,0.0,0.0,1.0,654.5,280.0)" opacity="1.0"><path id="ProcessOnPath1071" d="M0.0 0.0L40.0 0.0L40.0 40.0L0.0 40.0Z" stroke="#323232" stroke-width="2.0" stroke-dasharray="none" opacity="1.0" fill="#ffffff"/></g><g id="ProcessOnG1072" transform="matrix(1.0,0.0,0.0,1.0,664.5,290.0)" opacity="1.0"><path id="ProcessOnPath1073" d="M0.0 0.0L40.0 0.0L40.0 40.0L0.0 40.0Z" stroke="#323232" stroke-width="2.0" stroke-dasharray="none" opacity="1.0" fill="#ffffff"/></g><g id="ProcessOnG1074" transform="matrix(1.0,0.0,0.0,1.0,674.5,300.0)" opacity="1.0"><path id="ProcessOnPath1075" d="M0.0 0.0L40.0 0.0L40.0 40.0L0.0 40.0Z" stroke="#323232" stroke-width="2.0" stroke-dasharray="none" opacity="1.0" fill="#ffffff"/></g><g id="ProcessOnG1076" transform="matrix(1.0,0.0,0.0,1.0,684.5,310.0)" opacity="1.0"><path id="ProcessOnPath1077" d="M0.0 0.0L40.0 0.0L40.0 40.0L0.0 40.0Z" stroke="#323232" stroke-width="2.0" stroke-dasharray="none" opacity="1.0" fill="#ffffff"/></g><g id="ProcessOnG1078" transform="matrix(1.0,0.0,0.0,1.0,694.5,320.0)" opacity="1.0"><path id="ProcessOnPath1079" d="M0.0 0.0L40.0 0.0L40.0 40.0L0.0 40.0Z" stroke="#323232" stroke-width="2.0" stroke-dasharray="none" opacity="1.0" fill="#ffffff"/></g><g id="ProcessOnG1080" transform="matrix(1.0,0.0,0.0,1.0,704.5,330.0)" opacity="1.0"><path id="ProcessOnPath1081" d="M0.0 0.0L40.0 0.0L40.0 40.0L0.0 40.0Z" stroke="#323232" stroke-width="2.0" stroke-dasharray="none" opacity="1.0" fill="#ffffff"/></g><g id="ProcessOnG1082" transform="matrix(1.0,0.0,0.0,1.0,714.5,340.0)" opacity="1.0"><path id="ProcessOnPath1083" d="M0.0 0.0L40.0 0.0L40.0 40.0L0.0 40.0Z" stroke="#323232" stroke-width="2.0" stroke-dasharray="none" opacity="1.0" fill="#ffffff"/></g><g id="ProcessOnG1084" transform="matrix(1.0,0.0,0.0,1.0,724.5,350.0)" opacity="1.0"><path id="ProcessOnPath1085" d="M0.0 0.0L40.0 0.0L40.0 40.0L0.0 40.0Z" stroke="#323232" stroke-width="2.0" stroke-dasharray="none" opacity="1.0" fill="#ffffff"/></g><g id="ProcessOnG1086" transform="matrix(1.0,0.0,0.0,1.0,805.0,290.0)" opacity="1.0"><path id="ProcessOnPath1087" d="M0.0 0.0L20.0 0.0L20.0 20.0L0.0 20.0Z" stroke="#323232" stroke-width="2.0" stroke-dasharray="none" opacity="1.0" fill="#ffffff"/></g><g id="ProcessOnG1088" transform="matrix(1.0,0.0,0.0,1.0,815.0,300.0)" opacity="1.0"><path id="ProcessOnPath1089" d="M0.0 0.0L20.0 0.0L20.0 20.0L0.0 20.0Z" stroke="#323232" stroke-width="2.0" stroke-dasharray="none" opacity="1.0" fill="#ffffff"/></g><g id="ProcessOnG1090" transform="matrix(1.0,0.0,0.0,1.0,825.0,310.0)" opacity="1.0"><path id="ProcessOnPath1091" d="M0.0 0.0L20.0 0.0L20.0 20.0L0.0 20.0Z" stroke="#323232" stroke-width="2.0" stroke-dasharray="none" opacity="1.0" fill="#ffffff"/></g><g id="ProcessOnG1092" transform="matrix(1.0,0.0,0.0,1.0,835.0,320.0)" opacity="1.0"><path id="ProcessOnPath1093" d="M0.0 0.0L20.0 0.0L20.0 20.0L0.0 20.0Z" stroke="#323232" stroke-width="2.0" stroke-dasharray="none" opacity="1.0" fill="#ffffff"/></g><g id="ProcessOnG1094" transform="matrix(1.0,0.0,0.0,1.0,845.0,330.0)" opacity="1.0"><path id="ProcessOnPath1095" d="M0.0 0.0L20.0 0.0L20.0 20.0L0.0 20.0Z" stroke="#323232" stroke-width="2.0" stroke-dasharray="none" opacity="1.0" fill="#ffffff"/></g><g id="ProcessOnG1096" transform="matrix(1.0,0.0,0.0,1.0,855.0,340.0)" opacity="1.0"><path id="ProcessOnPath1097" d="M0.0 0.0L20.0 0.0L20.0 20.0L0.0 20.0Z" stroke="#323232" stroke-width="2.0" stroke-dasharray="none" opacity="1.0" fill="#ffffff"/></g><g id="ProcessOnG1098" transform="matrix(1.0,0.0,0.0,1.0,865.0,350.0)" opacity="1.0"><path id="ProcessOnPath1099" d="M0.0 0.0L20.0 0.0L20.0 20.0L0.0 20.0Z" stroke="#323232" stroke-width="2.0" stroke-dasharray="none" opacity="1.0" fill="#ffffff"/></g><g id="ProcessOnG1100" transform="matrix(1.0,0.0,0.0,1.0,875.0,360.0)" opacity="1.0"><path id="ProcessOnPath1101" d="M0.0 0.0L20.0 0.0L20.0 20.0L0.0 20.0Z" stroke="#323232" stroke-width="2.0" stroke-dasharray="none" opacity="1.0" fill="#ffffff"/></g><g id="ProcessOnG1102" transform="matrix(1.0,0.0,0.0,1.0,885.0,370.0)" opacity="1.0"><path id="ProcessOnPath1103" d="M0.0 0.0L20.0 0.0L20.0 20.0L0.0 20.0Z" stroke="#323232" stroke-width="2.0" stroke-dasharray="none" opacity="1.0" fill="#ffffff"/></g><g id="ProcessOnG1104" transform="matrix(1.0,0.0,0.0,1.0,375.5,256.0)" opacity="1.0"><path id="ProcessOnPath1105" d="M0.0 0.0L88.0 0.0L88.0 88.0L0.0 88.0Z" stroke="#323232" stroke-width="2.0" stroke-dasharray="none" opacity="1.0" fill="#ffffff"/></g><g id="ProcessOnG1106" transform="matrix(1.0,0.0,0.0,1.0,564.0,310.0)" opacity="1.0"><path id="ProcessOnPath1107" d="M0.0 0.0L60.0 0.0L60.0 60.0L0.0 60.0Z" stroke="#323232" stroke-width="2.0" stroke-dasharray="none" opacity="1.0" fill="#ffffff"/></g><g id="ProcessOnG1108" transform="matrix(1.0,0.0,0.0,1.0,574.0,320.0)" opacity="1.0"><path id="ProcessOnPath1109" d="M0.0 0.0L60.0 0.0L60.0 60.0L0.0 60.0Z" stroke="#323232" stroke-width="2.0" stroke-dasharray="none" opacity="1.0" fill="#ffffff"/></g><g id="ProcessOnG1110" transform="matrix(1.0,0.0,0.0,1.0,584.0,330.0)" opacity="1.0"><path id="ProcessOnPath1111" d="M0.0 0.0L60.0 0.0L60.0 60.0L0.0 60.0Z" stroke="#323232" stroke-width="2.0" stroke-dasharray="none" opacity="1.0" fill="#ffffff"/></g><g id="ProcessOnG1112" transform="matrix(1.0,0.0,0.0,1.0,734.5,360.0)" opacity="1.0"><path id="ProcessOnPath1113" d="M0.0 0.0L40.0 0.0L40.0 40.0L0.0 40.0Z" stroke="#323232" stroke-width="2.0" stroke-dasharray="none" opacity="1.0" fill="#ffffff"/></g><g id="ProcessOnG1114" transform="matrix(1.0,0.0,0.0,1.0,744.5,370.0)" opacity="1.0"><path id="ProcessOnPath1115" d="M0.0 0.0L40.0 0.0L40.0 40.0L0.0 40.0Z" stroke="#323232" stroke-width="2.0" stroke-dasharray="none" opacity="1.0" fill="#ffffff"/></g><g id="ProcessOnG1116" transform="matrix(1.0,0.0,0.0,1.0,754.5,380.0)" opacity="1.0"><path id="ProcessOnPath1117" d="M0.0 0.0L40.0 0.0L40.0 40.0L0.0 40.0Z" stroke="#323232" stroke-width="2.0" stroke-dasharray="none" opacity="1.0" fill="#ffffff"/></g><g id="ProcessOnG1118" transform="matrix(1.0,0.0,0.0,1.0,764.5,390.0)" opacity="1.0"><path id="ProcessOnPath1119" d="M0.0 0.0L40.0 0.0L40.0 40.0L0.0 40.0Z" stroke="#323232" stroke-width="2.0" stroke-dasharray="none" opacity="1.0" fill="#ffffff"/></g><g id="ProcessOnG1120" transform="matrix(1.0,0.0,0.0,1.0,895.0,380.0)" opacity="1.0"><path id="ProcessOnPath1121" d="M0.0 0.0L20.0 0.0L20.0 20.0L0.0 20.0Z" stroke="#323232" stroke-width="2.0" stroke-dasharray="none" opacity="1.0" fill="#ffffff"/></g><g id="ProcessOnG1122" transform="matrix(1.0,0.0,0.0,1.0,905.0,390.0)" opacity="1.0"><path id="ProcessOnPath1123" d="M0.0 0.0L20.0 0.0L20.0 20.0L0.0 20.0Z" stroke="#323232" stroke-width="2.0" stroke-dasharray="none" opacity="1.0" fill="#ffffff"/></g><g id="ProcessOnG1124" transform="matrix(1.0,0.0,0.0,1.0,915.0,400.0)" opacity="1.0"><path id="ProcessOnPath1125" d="M0.0 0.0L20.0 0.0L20.0 20.0L0.0 20.0Z" stroke="#323232" stroke-width="2.0" stroke-dasharray="none" opacity="1.0" fill="#ffffff"/></g><g id="ProcessOnG1126" transform="matrix(1.0,0.0,0.0,1.0,925.0,410.0)" opacity="1.0"><path id="ProcessOnPath1127" d="M0.0 0.0L20.0 0.0L20.0 20.0L0.0 20.0Z" stroke="#323232" stroke-width="2.0" stroke-dasharray="none" opacity="1.0" fill="#ffffff"/></g><g id="ProcessOnG1128" transform="matrix(1.0,0.0,0.0,1.0,935.0,420.0)" opacity="1.0"><path id="ProcessOnPath1129" d="M0.0 0.0L20.0 0.0L20.0 20.0L0.0 20.0Z" stroke="#323232" stroke-width="2.0" stroke-dasharray="none" opacity="1.0" fill="#ffffff"/></g><g id="ProcessOnG1130" transform="matrix(1.0,0.0,0.0,1.0,924.0,270.0)" opacity="1.0"><path id="ProcessOnPath1131" d="M0.0 0.0L40.0 0.0L40.0 40.0L0.0 40.0Z" stroke="#323232" stroke-width="2.0" stroke-dasharray="none" opacity="1.0" fill="#ffffff"/></g><g id="ProcessOnG1132" transform="matrix(1.0,0.0,0.0,1.0,934.0,280.0)" opacity="1.0"><path id="ProcessOnPath1133" d="M0.0 0.0L40.0 0.0L40.0 40.0L0.0 40.0Z" stroke="#323232" stroke-width="2.0" stroke-dasharray="none" opacity="1.0" fill="#ffffff"/></g><g id="ProcessOnG1134" transform="matrix(1.0,0.0,0.0,1.0,944.0,290.0)" opacity="1.0"><path id="ProcessOnPath1135" d="M0.0 0.0L40.0 0.0L40.0 40.0L0.0 40.0Z" stroke="#323232" stroke-width="2.0" stroke-dasharray="none" opacity="1.0" fill="#ffffff"/></g><g id="ProcessOnG1136" transform="matrix(1.0,0.0,0.0,1.0,954.0,300.0)" opacity="1.0"><path id="ProcessOnPath1137" d="M0.0 0.0L40.0 0.0L40.0 40.0L0.0 40.0Z" stroke="#323232" stroke-width="2.0" stroke-dasharray="none" opacity="1.0" fill="#ffffff"/></g><g id="ProcessOnG1138" transform="matrix(1.0,0.0,0.0,1.0,964.0,310.0)" opacity="1.0"><path id="ProcessOnPath1139" d="M0.0 0.0L40.0 0.0L40.0 40.0L0.0 40.0Z" stroke="#323232" stroke-width="2.0" stroke-dasharray="none" opacity="1.0" fill="#ffffff"/></g><g id="ProcessOnG1140" transform="matrix(1.0,0.0,0.0,1.0,974.0,320.0)" opacity="1.0"><path id="ProcessOnPath1141" d="M0.0 0.0L40.0 0.0L40.0 40.0L0.0 40.0Z" stroke="#323232" stroke-width="2.0" stroke-dasharray="none" opacity="1.0" fill="#ffffff"/></g><g id="ProcessOnG1142" transform="matrix(1.0,0.0,0.0,1.0,984.0,330.0)" opacity="1.0"><path id="ProcessOnPath1143" d="M0.0 0.0L40.0 0.0L40.0 40.0L0.0 40.0Z" stroke="#323232" stroke-width="2.0" stroke-dasharray="none" opacity="1.0" fill="#ffffff"/></g><g id="ProcessOnG1144" transform="matrix(1.0,0.0,0.0,1.0,994.0,340.0)" opacity="1.0"><path id="ProcessOnPath1145" d="M0.0 0.0L40.0 0.0L40.0 40.0L0.0 40.0Z" stroke="#323232" stroke-width="2.0" stroke-dasharray="none" opacity="1.0" fill="#ffffff"/></g><g id="ProcessOnG1146" transform="matrix(1.0,0.0,0.0,1.0,1004.0,350.0)" opacity="1.0"><path id="ProcessOnPath1147" d="M0.0 0.0L40.0 0.0L40.0 40.0L0.0 40.0Z" stroke="#323232" stroke-width="2.0" stroke-dasharray="none" opacity="1.0" fill="#ffffff"/></g><g id="ProcessOnG1148" transform="matrix(1.0,0.0,0.0,1.0,1014.0,360.0)" opacity="1.0"><path id="ProcessOnPath1149" d="M0.0 0.0L40.0 0.0L40.0 40.0L0.0 40.0Z" stroke="#323232" stroke-width="2.0" stroke-dasharray="none" opacity="1.0" fill="#ffffff"/></g><g id="ProcessOnG1150" transform="matrix(1.0,0.0,0.0,1.0,1024.0,370.0)" opacity="1.0"><path id="ProcessOnPath1151" d="M0.0 0.0L40.0 0.0L40.0 40.0L0.0 40.0Z" stroke="#323232" stroke-width="2.0" stroke-dasharray="none" opacity="1.0" fill="#ffffff"/></g><g id="ProcessOnG1152" transform="matrix(1.0,0.0,0.0,1.0,1034.0,380.0)" opacity="1.0"><path id="ProcessOnPath1153" d="M0.0 0.0L40.0 0.0L40.0 40.0L0.0 40.0Z" stroke="#323232" stroke-width="2.0" stroke-dasharray="none" opacity="1.0" fill="#ffffff"/></g><g id="ProcessOnG1154" transform="matrix(1.0,0.0,0.0,1.0,1044.0,390.0)" opacity="1.0"><path id="ProcessOnPath1155" d="M0.0 0.0L40.0 0.0L40.0 40.0L0.0 40.0Z" stroke="#323232" stroke-width="2.0" stroke-dasharray="none" opacity="1.0" fill="#ffffff"/></g><g id="ProcessOnG1156" transform="matrix(1.0,0.0,0.0,1.0,1064.0,230.0)" opacity="1.0"><path id="ProcessOnPath1157" d="M0.0 0.0L60.0 0.0L60.0 60.0L0.0 60.0Z" stroke="#323232" stroke-width="2.0" stroke-dasharray="none" opacity="1.0" fill="#ffffff"/></g><g id="ProcessOnG1158" transform="matrix(1.0,0.0,0.0,1.0,1074.0,240.0)" opacity="1.0"><path id="ProcessOnPath1159" d="M0.0 0.0L60.0 0.0L60.0 60.0L0.0 60.0Z" stroke="#323232" stroke-width="2.0" stroke-dasharray="none" opacity="1.0" fill="#ffffff"/></g><g id="ProcessOnG1160" transform="matrix(1.0,0.0,0.0,1.0,1084.0,250.0)" opacity="1.0"><path id="ProcessOnPath1161" d="M0.0 0.0L60.0 0.0L60.0 60.0L0.0 60.0Z" stroke="#323232" stroke-width="2.0" stroke-dasharray="none" opacity="1.0" fill="#ffffff"/></g><g id="ProcessOnG1162" transform="matrix(1.0,0.0,0.0,1.0,1094.0,260.0)" opacity="1.0"><path id="ProcessOnPath1163" d="M0.0 0.0L60.0 0.0L60.0 60.0L0.0 60.0Z" stroke="#323232" stroke-width="2.0" stroke-dasharray="none" opacity="1.0" fill="#ffffff"/></g><g id="ProcessOnG1164" transform="matrix(1.0,0.0,0.0,1.0,1104.0,270.0)" opacity="1.0"><path id="ProcessOnPath1165" d="M0.0 0.0L60.0 0.0L60.0 60.0L0.0 60.0Z" stroke="#323232" stroke-width="2.0" stroke-dasharray="none" opacity="1.0" fill="#ffffff"/></g><g id="ProcessOnG1166" transform="matrix(1.0,0.0,0.0,1.0,1114.0,280.0)" opacity="1.0"><path id="ProcessOnPath1167" d="M0.0 0.0L60.0 0.0L60.0 60.0L0.0 60.0Z" stroke="#323232" stroke-width="2.0" stroke-dasharray="none" opacity="1.0" fill="#ffffff"/></g><g id="ProcessOnG1168" transform="matrix(1.0,0.0,0.0,1.0,1124.0,290.0)" opacity="1.0"><path id="ProcessOnPath1169" d="M0.0 0.0L60.0 0.0L60.0 60.0L0.0 60.0Z" stroke="#323232" stroke-width="2.0" stroke-dasharray="none" opacity="1.0" fill="#ffffff"/></g><g id="ProcessOnG1170" transform="matrix(1.0,0.0,0.0,1.0,1134.0,300.0)" opacity="1.0"><path id="ProcessOnPath1171" d="M0.0 0.0L60.0 0.0L60.0 60.0L0.0 60.0Z" stroke="#323232" stroke-width="2.0" stroke-dasharray="none" opacity="1.0" fill="#ffffff"/></g><g id="ProcessOnG1172" transform="matrix(1.0,0.0,0.0,1.0,1144.0,310.0)" opacity="1.0"><path id="ProcessOnPath1173" d="M0.0 0.0L60.0 0.0L60.0 60.0L0.0 60.0Z" stroke="#323232" stroke-width="2.0" stroke-dasharray="none" opacity="1.0" fill="#ffffff"/></g><g id="ProcessOnG1174" transform="matrix(1.0,0.0,0.0,1.0,1154.0,320.0)" opacity="1.0"><path id="ProcessOnPath1175" d="M0.0 0.0L60.0 0.0L60.0 60.0L0.0 60.0Z" stroke="#323232" stroke-width="2.0" stroke-dasharray="none" opacity="1.0" fill="#ffffff"/></g><g id="ProcessOnG1176" transform="matrix(1.0,0.0,0.0,1.0,1164.0,330.0)" opacity="1.0"><path id="ProcessOnPath1177" d="M0.0 0.0L60.0 0.0L60.0 60.0L0.0 60.0Z" stroke="#323232" stroke-width="2.0" stroke-dasharray="none" opacity="1.0" fill="#ffffff"/></g><g id="ProcessOnG1178" transform="matrix(1.0,0.0,0.0,1.0,1235.5,186.0)" opacity="1.0"><path id="ProcessOnPath1179" d="M0.0 0.0L88.0 0.0L88.0 88.0L0.0 88.0Z" stroke="#323232" stroke-width="2.0" stroke-dasharray="none" opacity="1.0" fill="#ffffff"/></g><g id="ProcessOnG1180" transform="matrix(1.0,0.0,0.0,1.0,1245.5,196.0)" opacity="1.0"><path id="ProcessOnPath1181" d="M0.0 0.0L88.0 0.0L88.0 88.0L0.0 88.0Z" stroke="#323232" stroke-width="2.0" stroke-dasharray="none" opacity="1.0" fill="#ffffff"/></g><g id="ProcessOnG1182" transform="matrix(1.0,0.0,0.0,1.0,1255.5,206.0)" opacity="1.0"><path id="ProcessOnPath1183" d="M0.0 0.0L88.0 0.0L88.0 88.0L0.0 88.0Z" stroke="#323232" stroke-width="2.0" stroke-dasharray="none" opacity="1.0" fill="#ffffff"/></g><g id="ProcessOnG1184" transform="matrix(1.0,0.0,0.0,1.0,1265.5,216.0)" opacity="1.0"><path id="ProcessOnPath1185" d="M0.0 0.0L88.0 0.0L88.0 88.0L0.0 88.0Z" stroke="#323232" stroke-width="2.0" stroke-dasharray="none" opacity="1.0" fill="#ffffff"/></g><g id="ProcessOnG1186" transform="matrix(1.0,0.0,0.0,1.0,1275.5,226.0)" opacity="1.0"><path id="ProcessOnPath1187" d="M0.0 0.0L88.0 0.0L88.0 88.0L0.0 88.0Z" stroke="#323232" stroke-width="2.0" stroke-dasharray="none" opacity="1.0" fill="#ffffff"/></g><g id="ProcessOnG1188" transform="matrix(1.0,0.0,0.0,1.0,1285.5,236.0)" opacity="1.0"><path id="ProcessOnPath1189" d="M0.0 0.0L88.0 0.0L88.0 88.0L0.0 88.0Z" stroke="#323232" stroke-width="2.0" stroke-dasharray="none" opacity="1.0" fill="#ffffff"/></g><g id="ProcessOnG1190" transform="matrix(1.0,0.0,0.0,1.0,1295.5,246.0)" opacity="1.0"><path id="ProcessOnPath1191" d="M0.0 0.0L88.0 0.0L88.0 88.0L0.0 88.0Z" stroke="#323232" stroke-width="2.0" stroke-dasharray="none" opacity="1.0" fill="#ffffff"/></g><g id="ProcessOnG1192" transform="matrix(1.0,0.0,0.0,1.0,1305.5,256.0)" opacity="1.0"><path id="ProcessOnPath1193" d="M0.0 0.0L88.0 0.0L88.0 88.0L0.0 88.0Z" stroke="#323232" stroke-width="2.0" stroke-dasharray="none" opacity="1.0" fill="#ffffff"/></g><g id="ProcessOnG1194" transform="matrix(1.0,0.0,0.0,1.0,1455.0,140.0)" opacity="1.0"><path id="ProcessOnPath1195" d="M0.0 0.0L120.0 0.0L120.0 120.0L0.0 120.0Z" stroke="#323232" stroke-width="2.0" stroke-dasharray="none" opacity="1.0" fill="#ffffff"/></g><g id="ProcessOnG1196" transform="matrix(1.0,0.0,0.0,1.0,1475.0,160.0)" opacity="1.0"><path id="ProcessOnPath1197" d="M0.0 0.0L120.0 0.0L120.0 120.0L0.0 120.0Z" stroke="#323232" stroke-width="2.0" stroke-dasharray="none" opacity="1.0" fill="#ffffff"/></g><g id="ProcessOnG1198" transform="matrix(1.0,0.0,0.0,1.0,1495.0,180.0)" opacity="1.0"><path id="ProcessOnPath1199" d="M0.0 0.0L120.0 0.0L120.0 120.0L0.0 120.0Z" stroke="#323232" stroke-width="2.0" stroke-dasharray="none" opacity="1.0" fill="#ffffff"/></g><g id="ProcessOnG1200" transform="matrix(1.0,0.0,0.0,1.0,265.0,227.0)" opacity="1.0"><path id="ProcessOnPath1201" d="M0.0 8.58L17.0 8.58L17.0 0.0L30.0 13.0L17.0 26.0L17.0 17.42L0.0 17.42L0.0 8.58Z" stroke="#323232" stroke-width="2.0" stroke-dasharray="none" opacity="1.0" fill="#ffffff"/></g><g id="ProcessOnG1202" transform="matrix(1.0,0.0,0.0,1.0,475.0,307.0)" opacity="1.0"><path id="ProcessOnPath1203" d="M0.0 8.58L17.0 8.58L17.0 0.0L30.0 13.0L17.0 26.0L17.0 17.42L0.0 17.42L0.0 8.58Z" stroke="#323232" stroke-width="2.0" stroke-dasharray="none" opacity="1.0" fill="#ffffff"/></g><g id="ProcessOnG1204" transform="matrix(1.0,0.0,0.0,1.0,655.0,357.0)" opacity="1.0"><path id="ProcessOnPath1205" d="M0.0 8.58L17.0 8.58L17.0 0.0L30.0 13.0L17.0 26.0L17.0 17.42L0.0 17.42L0.0 8.58Z" stroke="#323232" stroke-width="2.0" stroke-dasharray="none" opacity="1.0" fill="#ffffff"/></g><g id="ProcessOnG1206" transform="matrix(1.0,0.0,0.0,1.0,805.0,357.0)" opacity="1.0"><path id="ProcessOnPath1207" d="M0.0 8.58L17.0 8.58L17.0 0.0L30.0 13.0L17.0 26.0L17.0 17.42L0.0 17.42L0.0 8.58Z" stroke="#323232" stroke-width="2.0" stroke-dasharray="none" opacity="1.0" fill="#ffffff"/></g><g id="ProcessOnG1208" transform="matrix(1.0,0.0,0.0,1.0,925.0,357.0)" opacity="1.0"><path id="ProcessOnPath1209" d="M0.0 8.58L17.0 8.58L17.0 0.0L30.0 13.0L17.0 26.0L17.0 17.42L0.0 17.42L0.0 8.58Z" stroke="#323232" stroke-width="2.0" stroke-dasharray="none" opacity="1.0" fill="#ffffff"/></g><g id="ProcessOnG1210" transform="matrix(1.0,0.0,0.0,1.0,1235.0,307.0)" opacity="1.0"><path id="ProcessOnPath1211" d="M0.0 8.58L17.0 8.58L17.0 0.0L30.0 13.0L17.0 26.0L17.0 17.42L0.0 17.42L0.0 8.58Z" stroke="#323232" stroke-width="2.0" stroke-dasharray="none" opacity="1.0" fill="#ffffff"/></g><g id="ProcessOnG1212" transform="matrix(1.0,0.0,0.0,1.0,1405.0,227.0)" opacity="1.0"><path id="ProcessOnPath1213" d="M0.0 8.58L17.0 8.58L17.0 0.0L30.0 13.0L17.0 26.0L17.0 17.42L0.0 17.42L0.0 8.58Z" stroke="#323232" stroke-width="2.0" stroke-dasharray="none" opacity="1.0" fill="#ffffff"/></g><g id="ProcessOnG1214" transform="matrix(1.0,0.0,0.0,1.0,1095.0,357.0)" opacity="1.0"><path id="ProcessOnPath1215" d="M0.0 8.58L17.0 8.58L17.0 0.0L30.0 13.0L17.0 26.0L17.0 17.42L0.0 17.42L0.0 8.58Z" stroke="#323232" stroke-width="2.0" stroke-dasharray="none" opacity="1.0" fill="#ffffff"/></g><g id="ProcessOnG1216" transform="matrix(1.0,0.0,0.0,1.0,342.0,140.0)" opacity="1.0"><path id="ProcessOnPath1217" d="M0.0 12.8Q0.0 0.0 12.8 0.0L923.2 0.0Q936.0 0.0 936.0 12.8L936.0 25.6L956.0 25.6L932.0 32.0L908.0 25.6L928.0 25.6L928.0 12.8Q928.0 8.0 898.0 8.0L38.0 8.0Q8.0 8.0 8.0 12.8L8.0 32.0L0.0 32.0L0.0 12.8Z" stroke="#323232" stroke-width="2.0" stroke-dasharray="none" opacity="1.0" fill="#ffffff"/><path id="ProcessOnPath1218" d="M0.0 0.0L956.0 0.0L956.0 32.0L0.0 32.0Z" stroke="none" stroke-width="0.0" stroke-dasharray="none" opacity="1.0" fill="none"/></g><g id="ProcessOnG1219" transform="matrix(1.0,0.0,0.0,1.0,505.0,180.0)" opacity="1.0"><path id="ProcessOnPath1220" d="M0.0 14.4Q0.0 0.0 14.4 0.0L574.6 0.0Q589.0 0.0 589.0 14.4L589.0 28.799999999999997L609.0 28.799999999999997L584.5 36.0L560.0 28.799999999999997L580.0 28.799999999999997L580.0 14.4Q580.0 9.0 550.0 9.0L39.0 9.0Q9.0 9.0 9.0 14.4L9.0 36.0L0.0 36.0L0.0 14.4Z" stroke="#323232" stroke-width="2.0" stroke-dasharray="none" opacity="1.0" fill="#ffffff"/><path id="ProcessOnPath1221" d="M0.0 0.0L609.0 0.0L609.0 36.0L0.0 36.0Z" stroke="none" stroke-width="0.0" stroke-dasharray="none" opacity="1.0" fill="none"/></g><g id="ProcessOnG1222" transform="matrix(1.0,0.0,0.0,1.0,904.5,96.0)" opacity="1.0"><path id="ProcessOnPath1223" d="M0.0 0.0L118.0 0.0L118.0 29.0L0.0 29.0Z" stroke="none" stroke-width="0.0" stroke-dasharray="none" opacity="1.0" fill="none"/><g id="ProcessOnG1224" transform="matrix(1.0,0.0,0.0,1.0,0.0,-5.5)"><text id="ProcessOnText1225" fill="#000000" font-size="16" x="58.0" y="16.4" font-family="微软雅黑" font-weight="bold" font-style="normal" text-decoration="none" family="微软雅黑" text-anchor="middle" size="16">Feature:</text><text id="ProcessOnText1226" fill="#000000" font-size="16" x="58.0" y="36.4" font-family="微软雅黑" font-weight="bold" font-style="normal" text-decoration="none" family="微软雅黑" text-anchor="middle" size="16">128@6x6</text></g></g><g id="ProcessOnG1227" transform="matrix(1.0,0.0,0.0,1.0,1064.5,96.0)" opacity="1.0"><path id="ProcessOnPath1228" d="M0.0 0.0L118.0 0.0L118.0 29.0L0.0 29.0Z" stroke="none" stroke-width="0.0" stroke-dasharray="none" opacity="1.0" fill="none"/><g id="ProcessOnG1229" transform="matrix(1.0,0.0,0.0,1.0,0.0,-5.5)"><text id="ProcessOnText1230" fill="#000000" font-size="16" x="58.0" y="16.4" font-family="微软雅黑" font-weight="bold" font-style="normal" text-decoration="none" family="微软雅黑" text-anchor="middle" size="16">Feature:</text><text id="ProcessOnText1231" fill="#000000" font-size="16" x="58.0" y="36.4" font-family="微软雅黑" font-weight="bold" font-style="normal" text-decoration="none" family="微软雅黑" text-anchor="middle" size="16">64@13x13</text></g></g><g id="ProcessOnG1232" transform="matrix(1.0,0.0,0.0,1.0,1254.5,96.0)" opacity="1.0"><path id="ProcessOnPath1233" d="M0.0 0.0L118.0 0.0L118.0 29.0L0.0 29.0Z" stroke="none" stroke-width="0.0" stroke-dasharray="none" opacity="1.0" fill="none"/><g id="ProcessOnG1234" transform="matrix(1.0,0.0,0.0,1.0,0.0,-5.5)"><text id="ProcessOnText1235" fill="#000000" font-size="16" x="58.0" y="16.4" font-family="微软雅黑" font-weight="bold" font-style="normal" text-decoration="none" family="微软雅黑" text-anchor="middle" size="16">Feature:</text><text id="ProcessOnText1236" fill="#000000" font-size="16" x="58.0" y="36.4" font-family="微软雅黑" font-weight="bold" font-style="normal" text-decoration="none" family="微软雅黑" text-anchor="middle" size="16">16@27x27</text></g></g><g id="ProcessOnG1237" transform="matrix(1.0,0.0,0.0,1.0,1464.5,96.0)" opacity="1.0"><path id="ProcessOnPath1238" d="M0.0 0.0L118.0 0.0L118.0 29.0L0.0 29.0Z" stroke="none" stroke-width="0.0" stroke-dasharray="none" opacity="1.0" fill="none"/><g id="ProcessOnG1239" transform="matrix(1.0,0.0,0.0,1.0,0.0,-5.5)"><text id="ProcessOnText1240" fill="#000000" font-size="16" x="58.0" y="16.4" font-family="微软雅黑" font-weight="bold" font-style="normal" text-decoration="none" family="微软雅黑" text-anchor="middle" size="16">Output:</text><text id="ProcessOnText1241" fill="#000000" font-size="16" x="58.0" y="36.4" font-family="微软雅黑" font-weight="bold" font-style="normal" text-decoration="none" family="微软雅黑" text-anchor="middle" size="16">3@54x54</text></g></g><g id="ProcessOnG1242" transform="matrix(1.0,0.0,0.0,1.0,217.0,355.5)" opacity="1.0"><path id="ProcessOnPath1243" d="M0.0 0.0L206.0 0.0L206.0 29.0L0.0 29.0Z" stroke="none" stroke-width="0.0" stroke-dasharray="none" opacity="1.0" fill="none"/><g id="ProcessOnG1244" transform="matrix(1.0,0.0,0.0,1.0,0.0,-35.5)"><text id="ProcessOnText1245" fill="#000000" font-size="16" x="0.0" y="16.4" font-family="微软雅黑" font-weight="bold" font-style="normal" text-decoration="none" family="微软雅黑" text-anchor="start" size="16">Conv_kernel: 5x5</text><text id="ProcessOnText1246" fill="#000000" font-size="16" x="0.0" y="36.4" font-family="微软雅黑" font-weight="bold" font-style="normal" text-decoration="none" family="微软雅黑" text-anchor="start" size="16">Conv_padding: 2 </text><text id="ProcessOnText1247" fill="#000000" font-size="16" x="0.0" y="56.4" font-family="微软雅黑" font-weight="bold" font-style="normal" text-decoration="none" family="微软雅黑" text-anchor="start" size="16">Conv_stride: 1</text><text id="ProcessOnText1248" fill="#000000" font-size="16" x="0.0" y="76.4" font-family="微软雅黑" font-weight="bold" font-style="normal" text-decoration="none" family="微软雅黑" text-anchor="start" size="16">Activate: Relu </text><text id="ProcessOnText1249" fill="#000000" font-size="16" x="0.0" y="96.4" font-family="微软雅黑" font-weight="bold" font-style="normal" text-decoration="none" family="微软雅黑" text-anchor="start" size="16">MaxPooling: 2x2 </text></g></g><g id="ProcessOnG1250" transform="matrix(1.0,0.0,0.0,1.0,427.0,395.5)" opacity="1.0"><path id="ProcessOnPath1251" d="M0.0 0.0L206.0 0.0L206.0 29.0L0.0 29.0Z" stroke="none" stroke-width="0.0" stroke-dasharray="none" opacity="1.0" fill="none"/><g id="ProcessOnG1252" transform="matrix(1.0,0.0,0.0,1.0,0.0,-35.5)"><text id="ProcessOnText1253" fill="#000000" font-size="16" x="0.0" y="16.4" font-family="微软雅黑" font-weight="bold" font-style="normal" text-decoration="none" family="微软雅黑" text-anchor="start" size="16">Conv_kernel: 5x5</text><text id="ProcessOnText1254" fill="#000000" font-size="16" x="0.0" y="36.4" font-family="微软雅黑" font-weight="bold" font-style="normal" text-decoration="none" family="微软雅黑" text-anchor="start" size="16">Conv_padding: 2 </text><text id="ProcessOnText1255" fill="#000000" font-size="16" x="0.0" y="56.4" font-family="微软雅黑" font-weight="bold" font-style="normal" text-decoration="none" family="微软雅黑" text-anchor="start" size="16">Conv_stride: 1</text><text id="ProcessOnText1256" fill="#000000" font-size="16" x="0.0" y="76.4" font-family="微软雅黑" font-weight="bold" font-style="normal" text-decoration="none" family="微软雅黑" text-anchor="start" size="16">Activate: Relu </text><text id="ProcessOnText1257" fill="#000000" font-size="16" x="0.0" y="96.4" font-family="微软雅黑" font-weight="bold" font-style="normal" text-decoration="none" family="微软雅黑" text-anchor="start" size="16">MaxPooling: 2x2 </text></g></g><g id="ProcessOnG1258" transform="matrix(1.0,0.0,0.0,1.0,607.0,445.5)" opacity="1.0"><path id="ProcessOnPath1259" d="M0.0 0.0L206.0 0.0L206.0 29.0L0.0 29.0Z" stroke="none" stroke-width="0.0" stroke-dasharray="none" opacity="1.0" fill="none"/><g id="ProcessOnG1260" transform="matrix(1.0,0.0,0.0,1.0,0.0,-35.5)"><text id="ProcessOnText1261" fill="#000000" font-size="16" x="0.0" y="16.4" font-family="微软雅黑" font-weight="bold" font-style="normal" text-decoration="none" family="微软雅黑" text-anchor="start" size="16">Conv_kernel: 5x5</text><text id="ProcessOnText1262" fill="#000000" font-size="16" x="0.0" y="36.4" font-family="微软雅黑" font-weight="bold" font-style="normal" text-decoration="none" family="微软雅黑" text-anchor="start" size="16">Conv_padding: 2 </text><text id="ProcessOnText1263" fill="#000000" font-size="16" x="0.0" y="56.4" font-family="微软雅黑" font-weight="bold" font-style="normal" text-decoration="none" family="微软雅黑" text-anchor="start" size="16">Conv_stride: 1 </text><text id="ProcessOnText1264" fill="#000000" font-size="16" x="0.0" y="76.4" font-family="微软雅黑" font-weight="bold" font-style="normal" text-decoration="none" family="微软雅黑" text-anchor="start" size="16">Activate: Relu</text><text id="ProcessOnText1265" fill="#000000" font-size="16" x="0.0" y="96.4" font-family="微软雅黑" font-weight="bold" font-style="normal" text-decoration="none" family="微软雅黑" text-anchor="start" size="16">MaxPooling: 2x2 </text></g></g><g id="ProcessOnG1266" transform="matrix(1.0,0.0,0.0,1.0,787.0,475.5)" opacity="1.0"><path id="ProcessOnPath1267" d="M0.0 0.0L206.0 0.0L206.0 29.0L0.0 29.0Z" stroke="none" stroke-width="0.0" stroke-dasharray="none" opacity="1.0" fill="none"/><g id="ProcessOnG1268" transform="matrix(1.0,0.0,0.0,1.0,0.0,-35.5)"><text id="ProcessOnText1269" fill="#000000" font-size="16" x="0.0" y="16.4" font-family="微软雅黑" font-weight="bold" font-style="normal" text-decoration="none" family="微软雅黑" text-anchor="start" size="16">Conv_kernel: 5x5</text><text id="ProcessOnText1270" fill="#000000" font-size="16" x="0.0" y="36.4" font-family="微软雅黑" font-weight="bold" font-style="normal" text-decoration="none" family="微软雅黑" text-anchor="start" size="16">Conv_padding: 2 </text><text id="ProcessOnText1271" fill="#000000" font-size="16" x="0.0" y="56.4" font-family="微软雅黑" font-weight="bold" font-style="normal" text-decoration="none" family="微软雅黑" text-anchor="start" size="16">Conv_stride: 1 </text><text id="ProcessOnText1272" fill="#000000" font-size="16" x="0.0" y="76.4" font-family="微软雅黑" font-weight="bold" font-style="normal" text-decoration="none" family="微软雅黑" text-anchor="start" size="16">Activate: Relu</text><text id="ProcessOnText1273" fill="#000000" font-size="16" x="0.0" y="96.4" font-family="微软雅黑" font-weight="bold" font-style="normal" text-decoration="none" family="微软雅黑" text-anchor="start" size="16">MaxPooling: 2x2 </text></g></g><g id="ProcessOnG1274" transform="matrix(1.0,0.0,0.0,1.0,947.0,465.5)" opacity="1.0"><path id="ProcessOnPath1275" d="M0.0 0.0L206.0 0.0L206.0 29.0L0.0 29.0Z" stroke="none" stroke-width="0.0" stroke-dasharray="none" opacity="1.0" fill="none"/><g id="ProcessOnG1276" transform="matrix(1.0,0.0,0.0,1.0,0.0,-25.5)"><text id="ProcessOnText1277" fill="#000000" font-size="16" x="0.0" y="16.4" font-family="微软雅黑" font-weight="bold" font-style="normal" text-decoration="none" family="微软雅黑" text-anchor="start" size="16">Conv_kernel: 4x4</text><text id="ProcessOnText1278" fill="#000000" font-size="16" x="0.0" y="36.4" font-family="微软雅黑" font-weight="bold" font-style="normal" text-decoration="none" family="微软雅黑" text-anchor="start" size="16">Conv_padding: 1</text><text id="ProcessOnText1279" fill="#000000" font-size="16" x="0.0" y="56.4" font-family="微软雅黑" font-weight="bold" font-style="normal" text-decoration="none" family="微软雅黑" text-anchor="start" size="16">Conv_stride: 2 </text><text id="ProcessOnText1280" fill="#000000" font-size="16" x="0.0" y="76.4" font-family="微软雅黑" font-weight="bold" font-style="normal" text-decoration="none" family="微软雅黑" text-anchor="start" size="16">Activate: Relu</text></g></g><g id="ProcessOnG1281" transform="matrix(1.0,0.0,0.0,1.0,1117.0,425.5)" opacity="1.0"><path id="ProcessOnPath1282" d="M0.0 0.0L206.0 0.0L206.0 29.0L0.0 29.0Z" stroke="none" stroke-width="0.0" stroke-dasharray="none" opacity="1.0" fill="none"/><g id="ProcessOnG1283" transform="matrix(1.0,0.0,0.0,1.0,0.0,-25.5)"><text id="ProcessOnText1284" fill="#000000" font-size="16" x="0.0" y="16.4" font-family="微软雅黑" font-weight="bold" font-style="normal" text-decoration="none" family="微软雅黑" text-anchor="start" size="16">Conv_kernel: 7x7</text><text id="ProcessOnText1285" fill="#000000" font-size="16" x="0.0" y="36.4" font-family="微软雅黑" font-weight="bold" font-style="normal" text-decoration="none" family="微软雅黑" text-anchor="start" size="16">Conv_padding: 2</text><text id="ProcessOnText1286" fill="#000000" font-size="16" x="0.0" y="56.4" font-family="微软雅黑" font-weight="bold" font-style="normal" text-decoration="none" family="微软雅黑" text-anchor="start" size="16">Conv_stride: 2 </text><text id="ProcessOnText1287" fill="#000000" font-size="16" x="0.0" y="76.4" font-family="微软雅黑" font-weight="bold" font-style="normal" text-decoration="none" family="微软雅黑" text-anchor="start" size="16">Activate: Relu</text></g></g><g id="ProcessOnG1288" transform="matrix(1.0,0.0,0.0,1.0,1267.0,385.5)" opacity="1.0"><path id="ProcessOnPath1289" d="M0.0 0.0L206.0 0.0L206.0 29.0L0.0 29.0Z" stroke="none" stroke-width="0.0" stroke-dasharray="none" opacity="1.0" fill="none"/><g id="ProcessOnG1290" transform="matrix(1.0,0.0,0.0,1.0,0.0,-25.5)"><text id="ProcessOnText1291" fill="#000000" font-size="16" x="0.0" y="16.4" font-family="微软雅黑" font-weight="bold" font-style="normal" text-decoration="none" family="微软雅黑" text-anchor="start" size="16">Conv_kernel: 5x5</text><text id="ProcessOnText1292" fill="#000000" font-size="16" x="0.0" y="36.4" font-family="微软雅黑" font-weight="bold" font-style="normal" text-decoration="none" family="微软雅黑" text-anchor="start" size="16">Conv_padding: 1</text><text id="ProcessOnText1293" fill="#000000" font-size="16" x="0.0" y="56.4" font-family="微软雅黑" font-weight="bold" font-style="normal" text-decoration="none" family="微软雅黑" text-anchor="start" size="16">Conv_stride: 2 </text><text id="ProcessOnText1294" fill="#000000" font-size="16" x="0.0" y="76.4" font-family="微软雅黑" font-weight="bold" font-style="normal" text-decoration="none" family="微软雅黑" text-anchor="start" size="16">Activate: Relu</text></g></g><g id="ProcessOnG1295" transform="matrix(1.0,0.0,0.0,1.0,1417.0,335.5)" opacity="1.0"><path id="ProcessOnPath1296" d="M0.0 0.0L206.0 0.0L206.0 29.0L0.0 29.0Z" stroke="none" stroke-width="0.0" stroke-dasharray="none" opacity="1.0" fill="none"/><g id="ProcessOnG1297" transform="matrix(1.0,0.0,0.0,1.0,0.0,-25.5)"><text id="ProcessOnText1298" fill="#000000" font-size="16" x="0.0" y="16.4" font-family="微软雅黑" font-weight="bold" font-style="normal" text-decoration="none" family="微软雅黑" text-anchor="start" size="16">Conv_kernel: 4x4</text><text id="ProcessOnText1299" fill="#000000" font-size="16" x="0.0" y="36.4" font-family="微软雅黑" font-weight="bold" font-style="normal" text-decoration="none" family="微软雅黑" text-anchor="start" size="16">Conv_padding: 1</text><text id="ProcessOnText1300" fill="#000000" font-size="16" x="0.0" y="56.4" font-family="微软雅黑" font-weight="bold" font-style="normal" text-decoration="none" family="微软雅黑" text-anchor="start" size="16">Conv_stride: 2 </text><text id="ProcessOnText1301" fill="#000000" font-size="16" x="0.0" y="76.4" font-family="微软雅黑" font-weight="bold" font-style="normal" text-decoration="none" family="微软雅黑" text-anchor="start" size="16">Activate: Relu </text></g></g></g></g></svg>